# xmcd
#
# Track frame offsets:
#	150
#	15696
#	31888
#	46528
#	58525
#	72762
#	89846
#	126610
#	147896
#	173202
#	188214
#	204233
#	225393
#	250499
#	262327
#
# Disc length: 3793 seconds
#
# Revision: 0
# Processed by: cddbd v1.5.2PL0 Copyright (c) Steve Scherf et al.
# Submitted via: EasyCDDAExtractor 4.6.9.1
#
DISCID=d70ecf0f
DTITLE=Artistes variés - 75 ans 75 chansons [CD 3)
DYEAR=2011
DGENRE=Compilation
TTITLE0=L'âme à la tendresse (Pauline Julien)
TTITLE1=Pourquoi chanter (Louise Forestier)
TTITLE2=Le plus beau voyage (Claude Gauthier)
TTITLE3=J'ai la tête en gigue (Jim et Bertrand)
TTITLE4=La dame en bleu (Michel Louvain)
TTITLE5=Je suis cool (Gilles Valiquette)
TTITLE6=Un musicien parmi tant d'autres (Harmonium)
TTITLE7=La voix que j'ai (Offenbach)
TTITLE8=La complainte du phoque en Alaska (Beau Dommage)
TTITLE9=Petit matin (Sylvain Lelièvre)
TTITLE10=Heureux d'un printemps (Paul Piché)
TTITLE11=La complainte de la serveuse automate (Fabienne Thibault)
TTITLE12=Je ne suis qu'une chanson (Ginette Reno)
TTITLE13=Si j'avais un char (Stephen Faulkner)
TTITLE14=La maudite machine (Octobre)
EXTD=
EXTT0=
EXTT1=
EXTT2=
EXTT3=
EXTT4=
EXTT5=
EXTT6=
EXTT7=
EXTT8=
EXTT9=
EXTT10=
EXTT11=
EXTT12=
EXTT13=
EXTT14=
PLAYORDER=
